<svg xmlns="http://www.w3.org/2000/svg" viewBox="0 0 96 96">
  <defs>
    <linearGradient id="g" x1="18" y1="14" x2="76" y2="82" gradientUnits="userSpaceOnUse">
      <stop offset="0" stop-color="#0b7d78"/>
      <stop offset="1" stop-color="#1d4768"/>
    </linearGradient>
  </defs>
  <path d="M32 12h28c13.3 0 24 10.7 24 24v10c0 13.3-10.7 24-24 24H45L29 82c-2.5 1.9-5.9-.4-5-3.4l3-10C18.2 65.1 12 56.4 12 46V36c0-13.3 10.7-24 24-24Z" fill="url(#g)"/>
  <path d="M36 25h25l9 9v30H36V25Z" fill="#fffdf9"/>
  <path d="M61 25v9h9" fill="none" stroke="#c58b2d" stroke-width="4" stroke-linecap="round" stroke-linejoin="round"/>
  <path d="M24 51h13l6-12 8 24 8-17h18" fill="none" stroke="#c58b2d" stroke-width="5" stroke-linecap="round" stroke-linejoin="round"/>
</svg>
